<?xml version="1.0" encoding="utf-8"?>
<!-- Generator: Adobe Illustrator 22.1.0, SVG Export Plug-In . SVG Version: 6.00 Build 0)  -->
<svg version="1.1" id="Capa_1" xmlns="http://www.w3.org/2000/svg" xmlns:xlink="http://www.w3.org/1999/xlink" x="0px" y="0px"
	 viewBox="0 0 600 600" style="enable-background:new 0 0 600 600;" xml:space="preserve">
<style type="text/css">
	.st0{fill:#E4E8DB;}
	.st1{fill:#DCC69F;}
	.st2{fill:#C8BEB2;}
	.st3{fill:#F5F9EC;}
	.st4{fill:#EA672C;}
	.st5{fill:url(#SVGID_1_);}
	.st6{fill:url(#SVGID_2_);}
	.st7{fill:#1DA1F2;}
	.st8{fill:url(#SVGID_3_);}
	.st9{fill:#FFF2E8;}
	.st10{fill:#FFFFFF;}
</style>
<g>
	<path class="st0" d="M422.6,190.6l-97.6-25.8L180.1,417.3c-8.8,15.3-3.5,34.9,11.8,43.7l166.6,95.5c15.3,8.8,34.9,3.5,43.7-11.8
		l112.3-195.9L422.6,190.6z"/>
	<path class="st1" d="M573.4,181.7c15.3,8.8,20.6,28.3,11.8,43.7l-79.6,138.8L283.6,236.9l79.6-138.8c8.8-15.3,28.3-20.6,43.7-11.8
		L573.4,181.7z"/>
	<g>
		
			<rect x="242.2" y="412.5" transform="matrix(0.4974 -0.8675 0.8675 0.4974 -214.8955 470.0214)" class="st2" width="112" height="16"/>
		
			<rect x="333.9" y="322.3" transform="matrix(0.4974 -0.8675 0.8675 0.4974 -110.6457 469.5576)" class="st2" width="32" height="16"/>
		
			<rect x="375.6" y="346.1" transform="matrix(0.4974 -0.8675 0.8675 0.4974 -110.3757 517.701)" class="st2" width="32" height="16"/>
		
			<rect x="417.2" y="370" transform="matrix(0.4974 -0.8675 0.8675 0.4974 -110.1862 565.7926)" class="st2" width="32" height="16"/>
		
			<rect x="283.8" y="436.3" transform="matrix(0.4974 -0.8675 0.8675 0.4974 -214.697 518.1168)" class="st2" width="112" height="16"/>
		
			<rect x="325.5" y="460.3" transform="matrix(0.4974 -0.8675 0.8675 0.4974 -214.4828 566.3035)" class="st2" width="112" height="16"/>
	</g>
	<path class="st3" d="M515.8,185.6l-11.9-6.8l-57,30.5c-11.1-6.4-23.6-13.5-25.8-14.8c-7.9-4.5-18.1-5.1-20.4-1.2
		c-2.3,4,3.4,12.5,11.3,17c2.1,1.2,14.6,8.4,25.8,14.8l2.5,64.6l11.9,6.8l13.4-55.5c7.8,4.5,15.8,9.1,21,12.1l5.3,20.2l7.9,4.5
		l5-24.8l18.9-16.8l-7.9-4.5l-20.1,5.6c-5.2-3-13.2-7.6-21-12.1L515.8,185.6z"/>
	<path class="st4" d="M420.7,94.2L205.8,469l-13.9-8c-15.3-8.8-20.6-28.3-11.8-43.7l183-319.3c8.8-15.3,28.3-20.6,43.7-11.8
		L420.7,94.2z"/>
</g>
<linearGradient id="SVGID_1_" gradientUnits="userSpaceOnUse" x1="66.0326" y1="391.377" x2="436.6221" y2="391.377" gradientTransform="matrix(1.0039 0 0 -1.0039 -0.151 692.9033)">
	<stop  offset="0" style="stop-color:#FFCF42"/>
	<stop  offset="1" style="stop-color:#FFB500"/>
</linearGradient>
<path class="st5" d="M438,103.2l-48.9,430.3c-1.6,13.9-14.2,23.9-28.1,22.3L88.6,524.9c-13.9-1.6-23.9-14.2-22.3-28.1l48.8-430.3
	c1.6-13.9,14.2-23.9,28.1-22.3l272.4,30.9C429.5,76.7,439.6,89.3,438,103.2z"/>
<linearGradient id="SVGID_2_" gradientUnits="userSpaceOnUse" x1="413.5494" y1="391" x2="318.5194" y2="413.97" gradientTransform="matrix(1.0039 0 0 -1.0039 -0.151 692.9033)">
	<stop  offset="0" style="stop-color:#FFB500;stop-opacity:0"/>
	<stop  offset="1" style="stop-color:#FF7000"/>
</linearGradient>
<polygon class="st6" points="388.3,72 391,516.5 391,516.5 436.1,119.8 "/>
<path class="st7" d="M391,83.5v433.1c0,14-11.4,25.4-25.4,25.4H91.4c-14,0-25.4-11.4-25.4-25.4V83.5c0-14,11.4-25.4,25.4-25.4h274.2
	C379.6,58.1,391,69.5,391,83.5z"/>
<linearGradient id="SVGID_3_" gradientUnits="userSpaceOnUse" x1="227.7699" y1="179.1317" x2="227.7699" y2="145.8217" gradientTransform="matrix(1.0039 0 0 -1.0039 -0.151 692.9033)">
	<stop  offset="0" style="stop-color:#1D7DF2;stop-opacity:0"/>
	<stop  offset="1" style="stop-color:#1D5FF2"/>
</linearGradient>
<path class="st8" d="M391,496.2v20.3c0,14-11.4,25.4-25.4,25.4H91.4c-14,0-25.4-11.4-25.4-25.4v-20.3H391z"/>
<g>
	<path class="st9" d="M103.6,170.7v-40c0-0.6,0.2-1,0.7-1.5c0.5-0.4,1.1-0.6,1.8-0.6h11.8c4,0,7.2,1.1,9.6,3.2
		c2.4,2.1,3.6,5.5,3.6,10.1v0.5c0,4.6-1.2,8-3.7,10.1c-2.5,2.2-5.8,3.2-9.9,3.2H110v14.9c0,0.6-0.3,1.2-0.9,1.5
		c-0.6,0.4-1.4,0.6-2.3,0.6c-0.8,0-1.6-0.2-2.2-0.6C103.9,171.8,103.6,171.3,103.6,170.7z M110,150.7h7.5c2.3,0,4.1-0.7,5.3-2
		c1.2-1.3,1.9-3.3,1.9-5.9v-0.7c0-2.6-0.6-4.6-1.9-5.9c-1.2-1.3-3-1.9-5.3-1.9H110C110,134.3,110,150.7,110,150.7z"/>
	<path class="st9" d="M131.1,170.1c0-0.2,0-0.4,0.1-0.5l12-39.2c0.5-1.4,1.9-2.2,4.3-2.2c2.4,0,3.8,0.7,4.4,2l12,39.2
		c0.1,0.3,0.1,0.4,0.1,0.6c0,0.8-0.5,1.4-1.4,2c-0.9,0.5-1.9,0.8-3,0.8c-1.3,0-2.1-0.4-2.4-1.3l-2.5-8.7h-14.9l-2.5,8.6
		c-0.3,0.9-1,1.3-2.2,1.3c-1,0-1.9-0.3-2.7-0.8C131.5,171.5,131.1,170.9,131.1,170.1z M141.2,157.7h12l-6-20.7L141.2,157.7z"/>
	<path class="st9" d="M165.9,166.2c0-0.8,0.3-1.5,0.8-2.3c0.6-0.8,1.2-1.1,1.9-1.1c0.4,0,1,0.3,1.6,0.8s1.2,1.1,1.8,1.7
		c0.6,0.6,1.5,1.2,2.8,1.7c1.2,0.5,2.6,0.8,4.1,0.8c2.3,0,4.1-0.5,5.5-1.6c1.4-1.1,2.1-2.7,2.1-4.8c0-1.9-0.7-3.6-2-4.9
		c-1.4-1.3-3-2.3-4.9-3.1s-3.8-1.6-5.8-2.5c-1.9-0.9-3.6-2.2-4.9-4c-1.4-1.8-2-4-2-6.7c0-2.1,0.4-4,1.2-5.5c0.8-1.6,1.9-2.8,3.4-3.6
		c1.4-0.8,2.9-1.5,4.4-1.8c1.6-0.4,3.2-0.6,4.9-0.6c1.1,0,2.2,0.1,3.4,0.2c1.2,0.1,2.4,0.4,3.5,0.7c1.2,0.3,2.1,0.8,2.9,1.4
		c0.8,0.6,1.1,1.3,1.1,2c0,0.8-0.2,1.5-0.7,2.3s-1.1,1.2-1.9,1.2c-0.4,0-0.9-0.2-1.6-0.6c-0.7-0.4-1.6-0.8-2.8-1.2
		c-1.1-0.4-2.5-0.6-4-0.6c-2.3,0-4.1,0.5-5.5,1.4c-1.4,0.9-2.1,2.3-2.1,4.2c0,1.2,0.4,2.3,1.1,3.1c0.7,0.9,1.7,1.6,2.8,2.2
		c1.1,0.6,2.4,1.1,3.8,1.7c1.4,0.5,2.8,1.2,4.2,1.9s2.7,1.6,3.8,2.5c1.1,1,2.1,2.3,2.8,3.9c0.7,1.7,1.1,3.6,1.1,5.8
		c0,4.2-1.3,7.3-3.8,9.5s-5.9,3.3-10,3.3c-3.7,0-6.9-0.8-9.5-2.3C167.2,169.4,165.9,167.8,165.9,166.2z"/>
	<path class="st9" d="M196.9,166.2c0-0.8,0.3-1.5,0.8-2.3c0.6-0.8,1.2-1.1,1.9-1.1c0.4,0,1,0.3,1.6,0.8s1.2,1.1,1.8,1.7
		c0.6,0.6,1.5,1.2,2.8,1.7c1.2,0.5,2.6,0.8,4.1,0.8c2.3,0,4.1-0.5,5.5-1.6c1.4-1.1,2.1-2.7,2.1-4.8c0-1.9-0.7-3.6-2-4.9
		c-1.4-1.3-3-2.3-4.9-3.1s-3.8-1.6-5.8-2.5c-1.9-0.9-3.6-2.2-4.9-4c-1.4-1.8-2-4-2-6.7c0-2.1,0.4-4,1.2-5.5c0.8-1.6,1.9-2.8,3.4-3.6
		c1.5-0.8,2.9-1.5,4.4-1.8c1.6-0.4,3.2-0.6,4.9-0.6c1.1,0,2.2,0.1,3.4,0.2c1.2,0.1,2.4,0.4,3.5,0.7c1.2,0.3,2.1,0.8,2.9,1.4
		c0.8,0.6,1.1,1.3,1.1,2c0,0.8-0.2,1.5-0.7,2.3s-1.1,1.2-1.9,1.2c-0.4,0-0.9-0.2-1.6-0.6c-0.7-0.4-1.6-0.8-2.8-1.2
		c-1.1-0.4-2.5-0.6-4-0.6c-2.3,0-4.1,0.5-5.5,1.4c-1.4,0.9-2.1,2.3-2.1,4.2c0,1.2,0.4,2.3,1.1,3.1c0.7,0.9,1.7,1.6,2.8,2.2
		c1.1,0.6,2.4,1.1,3.8,1.7c1.4,0.5,2.8,1.2,4.2,1.9s2.7,1.6,3.8,2.5c1.1,1,2.1,2.3,2.8,3.9c0.7,1.7,1.1,3.6,1.1,5.8
		c0,4.2-1.3,7.3-3.8,9.5s-5.9,3.3-10,3.3c-3.7,0-6.9-0.8-9.5-2.3C198.2,169.4,196.9,167.8,196.9,166.2z"/>
	<path class="st9" d="M230.1,170.7v-40c0-0.6,0.2-1,0.7-1.5c0.5-0.4,1.1-0.6,1.8-0.6h11.8c4,0,7.2,1.1,9.6,3.2
		c2.4,2.1,3.6,5.5,3.6,10.1v0.5c0,4.6-1.2,8-3.7,10.1c-2.5,2.2-5.8,3.2-9.9,3.2h-7.5v14.9c0,0.6-0.3,1.2-0.9,1.5
		c-0.6,0.4-1.4,0.6-2.3,0.6c-0.8,0-1.6-0.2-2.2-0.6C230.4,171.8,230.1,171.3,230.1,170.7z M236.5,150.7h7.5c2.3,0,4.1-0.7,5.3-2
		s1.9-3.3,1.9-5.9v-0.7c0-2.6-0.6-4.6-1.9-5.9c-1.2-1.3-3-1.9-5.3-1.9h-7.5V150.7z"/>
	<path class="st9" d="M262.6,159.7v-17.6c0-4.6,1.2-8,3.7-10.2s5.7-3.3,9.9-3.3s7.4,1.1,9.9,3.3c2.5,2.2,3.7,5.6,3.7,10.2v17.6
		c0,4.6-1.2,8-3.7,10.2s-5.8,3.3-9.9,3.3s-7.4-1.1-9.9-3.3S262.6,164.3,262.6,159.7z M269,159.7c0,5.2,2.4,7.8,7.1,7.8
		c2.3,0,4.1-0.6,5.3-1.9c1.2-1.3,1.9-3.2,1.9-5.9v-17.6c0-2.6-0.6-4.6-1.9-5.9c-1.2-1.3-3-1.9-5.3-1.9c-4.8,0-7.1,2.6-7.1,7.8V159.7
		z"/>
	<path class="st9" d="M297.2,170.7v-40c0-0.6,0.2-1,0.6-1.5c0.4-0.4,0.9-0.6,1.5-0.6h11.5c9.3,0,13.9,4.1,13.9,12.3
		c0,3.4-0.8,6.1-2.3,8c-1.5,1.9-3.6,3.2-6.2,3.9l8.5,15.9c0.2,0.3,0.2,0.6,0.2,0.9c0,0.8-0.4,1.6-1.2,2.2c-0.8,0.7-1.7,1-2.6,1
		c-1,0-1.9-0.6-2.5-1.9l-8.8-17.3h-6.1v16.9c0,0.6-0.3,1.2-0.9,1.5s-1.4,0.6-2.3,0.6c-0.8,0-1.6-0.2-2.2-0.6
		C297.5,171.8,297.2,171.3,297.2,170.7z M303.6,148.7h7.3c5,0,7.5-2.4,7.5-7.2s-2.5-7.2-7.5-7.2h-7.3V148.7z"/>
	<path class="st9" d="M327.3,131.5c0-0.8,0.2-1.5,0.5-2s0.9-0.9,1.6-0.9h25.1c0.7,0,1.2,0.3,1.6,0.9c0.4,0.6,0.5,1.2,0.5,2
		c0,0.9-0.2,1.6-0.6,2.2c-0.4,0.6-0.9,0.9-1.5,0.9h-9.3v36.1c0,0.6-0.3,1.2-1,1.5c-0.6,0.4-1.4,0.6-2.2,0.6c-0.9,0-1.6-0.2-2.3-0.6
		c-0.6-0.4-0.9-0.9-0.9-1.5v-36.2h-9.4c-0.6,0-1.2-0.3-1.5-0.9C327.5,133.1,327.3,132.4,327.3,131.5z"/>
	<path class="st9" d="M189.2,453.3h78.6c2.6,0,4.8,2.1,4.8,4.8v8.9c0,2.6-2.1,4.8-4.8,4.8h-78.6c-2.6,0-4.8-2.1-4.8-4.8v-8.9
		C184.5,455.5,186.6,453.3,189.2,453.3z"/>
	<path class="st9" d="M156.3,417.7h144.5c2.3,0,4.1,1.8,4.1,4.1V432c0,2.3-1.8,4.1-4.1,4.1H156.3c-2.3,0-4.1-1.8-4.1-4.1v-10.2
		C152.2,419.6,154,417.7,156.3,417.7z"/>
</g>
<path class="st10" d="M187.2,370c75,0,116-62.1,116-116c0-1.8,0-3.5-0.1-5.3c8-5.8,14.9-12.9,20.3-21.1c-7.4,3.3-15.3,5.5-23.4,6.4
	c8.5-5.1,14.9-13.1,17.9-22.5c-8,4.7-16.8,8.1-25.9,9.9c-15.4-16.4-41.3-17.2-57.7-1.8c-10.6,10-15.1,24.8-11.8,39
	c-32.8-1.6-63.3-17.1-84-42.6c-10.8,18.6-5.3,42.5,12.6,54.4c-6.5-0.2-12.8-1.9-18.5-5.1c0,0.2,0,0.3,0,0.5
	c0,19.4,13.7,36.1,32.7,40c-6,1.6-12.3,1.9-18.4,0.7c5.3,16.6,20.6,28,38.1,28.3c-14.4,11.3-32.3,17.5-50.6,17.5
	c-3.2,0-6.5-0.2-9.7-0.6C143.3,363.7,165,370,187.2,370"/>
</svg>
